<svg width="572" height="694" viewBox="0 0 572 694" fill="none" xmlns="http://www.w3.org/2000/svg">
<g clip-path="url(#clip0_5946_10072)">
<path d="M487.7 257.619C483.5 241.819 478.9 225.019 477.9 208.619C476.9 195.419 476.7 183.219 474.9 170.019C473.7 158.619 473.1 147.619 470.5 136.619C468.1 125.219 464.3 113.219 460.1 102.419C457.5 96.4193 453.1 85.6193 445.3 73.6193C442.1 68.6193 438.1 65.4193 433.9 60.2193C410.22 27.7793 381.4 14.1593 342.3 7.71932C341.9 7.65932 341.5 7.57932 341.1 7.47932C330.22 5.03932 317.46 0.399317 305.28 0.019317C278.68 -0.380683 251.68 4.01932 226.08 10.8193C209.08 16.2193 191.68 21.2193 176.28 30.4193C165.28 37.2193 155.48 47.0193 146.28 56.2193C120.08 79.0193 105.68 113.219 95.48 145.619C92.48 155.219 90.28 164.619 89.08 174.219C87.28 188.419 88.28 203.419 87.08 220.619C84.88 253.219 84.68 289.019 80.08 321.819C77.68 338.419 72.28 353.619 67.28 369.819C63.88 382.819 58.68 394.419 52.48 406.419C50.18 411.279 47.88 416.199 45.5 421.119C44.16 423.879 42.42 426.819 41.04 429.579C37.62 436.459 34.46 443.079 30.68 449.619C28.36 453.679 25.7 458.679 22.3 463.919C16.12 473.459 10.6 484.599 5.88001 496.219C3.48001 502.019 1.68001 508.019 0.680006 514.219C-0.519994 521.819 -0.519994 530.419 3.48001 535.619C10.68 544.219 23.28 547.219 34.08 546.019C42.88 544.819 50.48 539.219 57.88 534.019C63.88 529.819 73.48 514.619 84.48 501.619C92.08 492.419 97.68 482.019 101.48 475.619C108.08 464.819 125.28 427.819 131.68 416.019C132.68 414.019 135.68 415.019 135.48 417.219C134.68 421.619 133.68 427.019 132.08 433.419C130.48 439.819 127.68 449.219 123.88 460.019C122.88 463.219 121.68 466.619 120.48 470.019C118.88 474.819 118.48 477.019 116.08 482.019C113.48 487.819 113.28 490.019 112.28 492.619C110.48 497.419 108.08 502.619 106.28 507.419C103.48 515.019 101.48 522.219 98.68 529.219C96.68 534.819 95.28 536.619 93.68 542.219C92.88 545.019 89.88 551.019 89.08 553.419C86.3 560.999 84.74 566.339 83.4 569.959C83.18 570.539 82.98 571.119 82.82 571.719C79.84 582.159 79.3 591.719 80.08 602.219C81.08 613.019 86.48 619.619 92.48 623.819C99.06 628.339 106.9 630.019 116.3 628.699C117.48 628.539 118.66 628.239 119.8 627.859C125.1 626.039 130.62 623.279 135.48 620.219C142.88 615.619 148.68 608.819 152.28 600.819C154.88 595.019 156.88 589.619 159.48 584.819C166.08 572.019 168.88 563.619 172.88 553.419C174.08 550.619 176.08 546.019 177.28 543.019C180.08 535.819 181.88 529.819 185.08 520.819C186.28 518.019 187.88 512.819 190.48 506.419C192.68 501.419 194.08 496.819 195.68 492.019C197.68 485.619 200.68 478.819 202.48 472.019C205.28 461.019 208.68 451.819 210.48 444.019C211.28 440.819 212.28 437.019 213.28 433.619C213.88 431.419 217.08 432.019 217.08 434.219C216.68 443.019 215.48 454.819 214.48 467.619C214.08 472.819 213.88 478.019 213.48 483.619C212.68 492.419 211.88 501.619 211.08 510.819C210.9 513.259 210.42 515.699 210.04 518.139C209.92 518.859 209.84 519.579 209.8 520.319C209.66 522.759 209.64 525.199 209.46 527.619C209.06 533.019 208.46 538.219 208.06 543.419C207.26 553.019 206.26 561.219 205.66 569.219C205.46 571.219 205.46 574.019 205.26 575.819C204.9 580.259 204.38 584.079 204.14 587.559C204.06 588.579 204.08 589.599 204.14 590.619C204.14 590.619 204.14 590.639 204.14 590.659C204.22 591.659 204.2 592.659 204.14 593.659C204.02 595.699 204 597.859 203.82 600.019C203.42 607.019 202.42 614.619 202.02 622.419C201.62 629.219 201.62 636.019 202.02 642.619V644.419C202.22 647.419 202.42 650.019 202.82 653.019C202.82 653.219 202.82 653.619 203.02 653.819C204.82 668.219 210.42 679.019 218.02 686.019C226.22 693.619 238.02 695.819 249.82 691.419C253.42 690.019 258.02 688.419 261.62 685.819C265.42 683.019 268.22 679.019 271.62 674.619C275.22 669.819 279.22 657.619 283.02 641.419C284.42 635.619 286.42 628.819 287.82 622.019C289.22 615.419 290.62 608.619 292.02 601.219C293.62 592.619 294.22 583.219 295.62 574.019C296.42 568.819 298.22 563.219 299.02 557.819C300.02 550.619 300.22 543.819 301.22 536.819C302.42 529.019 303.42 521.219 304.62 513.619C305.82 505.019 307.42 499.219 308.22 486.219C308.62 479.019 310.02 472.019 311.02 465.219C312.42 454.619 313.62 445.019 314.42 437.619C314.62 435.619 317.62 435.619 318.02 437.619L322.02 468.019L326.5 497.299C326.58 497.759 326.62 498.219 326.66 498.679C326.92 501.639 328 513.619 329.4 519.219C330.64 523.999 332.82 537.679 333.3 540.799C333.36 541.219 333.42 541.619 333.46 542.039C333.62 543.719 334.12 548.459 334.6 551.239C335.4 556.439 336.8 563.239 337.8 571.439C339.2 581.039 340.4 592.839 341.8 600.839C342.6 607.639 344.2 614.039 346.2 621.839C348.4 631.239 351.2 640.839 354.4 648.839C359.2 660.239 369.8 675.439 388 675.439C393.6 675.439 398.2 674.239 402.2 672.239C407 669.839 410.8 666.439 413.8 662.639C419.4 655.439 421.8 647.439 422 644.839C422.8 635.039 424.2 627.039 424.6 617.239C424.8 612.839 424.4 606.839 424.6 602.439C424.8 595.439 424.6 588.239 425 581.239C425.4 569.239 424.2 561.239 424 550.439C423.6 539.639 423.6 528.239 423.2 517.239C423 510.239 422.8 503.439 422.4 496.439C422.2 493.239 422.4 490.039 422.6 487.039C422.8 481.239 421.4 476.039 421.6 471.039C421.8 457.439 421.6 447.639 421.2 435.639C421.2 434.399 421.04 431.259 420.86 429.739C420.8 429.259 420.78 428.799 420.76 428.319C420.56 422.599 420.22 410.379 420.6 402.259C420.6 400.059 423.4 399.059 425 400.459C426.94 402.399 430.44 406.599 434.68 411.919C437.5 415.459 439.9 419.659 443.12 423.879C444.88 426.179 447.28 428.479 449.16 430.739C451.2 433.179 452.14 434.719 453.6 436.679C456.8 440.999 458.58 443.459 461.44 447.079C463.82 450.059 466.6 454.599 468.04 456.739C470.54 460.399 473.04 463.919 475.64 467.319C478.52 471.099 481.5 474.759 484.68 478.319C486.78 480.659 489.88 483.599 491.96 486.079C493.66 488.079 495.52 490.179 497.36 491.979C500 494.539 502.6 496.659 505.6 498.999C509.02 501.679 512.76 503.379 516.1 505.499C517.46 506.359 518.84 507.119 520.28 507.779C524.26 509.619 528.54 510.739 532.84 511.059C538.92 511.519 544.88 511.659 550.5 508.899C552.26 508.039 554.58 506.339 556.2 505.239C559.52 502.979 562.24 500.319 564.72 497.159C566.48 494.919 567.8 491.879 568.98 489.259C570.78 485.239 571.82 480.819 571.86 476.079C571.8 471.179 570.72 465.079 568.88 458.179C568.26 455.859 567.56 453.439 566.78 450.939C565.66 447.319 564.36 443.559 562.96 439.659C562.14 437.379 559.86 432.799 557.86 427.879C555.46 421.919 553.28 415.539 552.24 413.339C551.28 411.319 550.26 408.479 549.38 406.519C548.06 403.539 545.26 398.119 543.92 395.159C542.38 391.799 536.96 379.639 535.6 376.039C534.92 374.219 531.46 368.399 529.46 364.359C527.32 360.039 524.72 356.779 522.82 352.979C521.04 349.399 519.94 345.719 518.44 342.719C517.24 340.319 511.74 326.059 509.72 321.499C506.96 315.299 503.52 309.739 501.08 303.299C495.44 288.339 490.78 272.919 487.58 257.679L487.7 257.619ZM243.5 290.219C240.5 295.619 236.7 298.219 231.9 301.419C227.9 304.019 223.5 307.819 218.7 309.019C211.5 310.619 203.5 310.419 194.7 308.419C187.1 306.619 179.1 305.819 171.5 300.019C166.3 296.019 161.1 292.019 158.5 286.619C156.1 281.619 156.7 271.819 156.1 266.419C155.1 257.819 155.3 252.619 156.7 246.019C158.1 240.019 160.9 228.619 171.1 219.619C181.1 210.819 192.3 209.419 196.9 208.819C199.7 208.419 206.7 207.619 213.9 209.619C221.7 211.819 228.5 216.619 233.9 223.019C238.3 228.219 241.3 235.819 243.9 242.419C247.1 250.219 249.3 257.019 249.3 264.619C249.7 269.019 249.3 279.219 243.5 290.219ZM410.3 271.419C407.7 276.819 403.9 282.019 399.1 287.219C382.9 304.419 362.3 306.819 341.1 300.419C337.3 299.219 333.7 297.619 329.9 294.419C322.9 288.419 319.1 279.419 318.1 272.019C317.1 264.619 319.1 258.619 319.3 256.819L319.9 253.819C319.9 252.019 320.1 247.219 323.9 238.419C326.9 231.619 331.7 224.419 339.9 219.019C349.5 212.419 360.7 210.419 371.5 211.619C376.9 212.219 383.3 213.419 388.1 215.419C392.9 217.619 396.1 220.819 399.9 224.219C401.5 225.619 408.5 232.019 412.3 242.219C413.5 245.619 412.9 250.619 413.1 254.619C413.1 260.619 413.1 265.419 410.3 271.419Z" fill="#2C2C2E"/>
<path d="M230.1 240.021C228.1 236.021 223.5 226.621 214.9 223.021C205.7 219.221 196.3 224.021 189.5 227.421C186.1 229.221 180.1 232.221 175.1 239.021C169.9 246.021 168.7 253.021 168.5 254.621C168.1 256.821 167.7 260.621 168.7 264.821C171.3 276.021 182.7 283.021 191.9 285.421C198.5 287.021 203.7 286.421 206.9 286.021C212.1 285.221 225.5 283.221 231.7 272.221C237.7 261.621 233.5 249.221 232.1 245.021C231.9 244.021 231.3 242.221 230.1 240.021Z" fill="#2C2C2E"/>
<path d="M390.5 237.02C388.9 235.22 387.3 232.42 385.5 230.62C380.9 226.02 376.7 225.22 373.9 224.22C373.7 224.22 372.1 223.62 370.1 223.42C359.3 222.42 350.1 228.62 350.1 228.62C342.3 234.02 333.1 246.22 334.5 258.62C335.1 264.82 338.3 270.22 342.9 274.42C345.3 276.62 349.9 278.22 352.9 279.62C361.1 283.82 369.1 285.02 377.3 282.02C379.7 281.22 390.3 277.02 395.3 265.22C396.3 262.82 398.5 257.62 397.7 251.22C396.9 245.42 394.3 241.22 390.5 237.02Z" fill="#2C2C2E"/>
</g>
<defs>
<clipPath id="clip0_5946_10072">
<rect width="571.96" height="693.68" fill="white"/>
</clipPath>
</defs>
</svg>
