<svg width="801" height="313" viewBox="0 0 801 313" fill="none" xmlns="http://www.w3.org/2000/svg">
<g clip-path="url(#clip0_5946_10065)">
<path d="M583.1 187.309C581.528 179.956 578.907 172.954 573.665 167.177C570.519 163.676 567.549 162.626 567.898 158.95C568.073 156.324 572.616 152.648 573.839 150.022C578.907 139.168 579.78 125.339 581.004 113.61C582.576 97.68 581.004 82.4501 580.829 65.6448C580.479 44.2879 577.684 31.5088 559.336 14.8785C543.26 0.348892 523.34 0.699004 502.022 0.87406C481.403 1.04912 460.434 -0.00122015 439.815 1.39923C435.272 1.74934 424.263 0.87406 420.943 5.0754C416.924 10.3271 419.021 27.4826 419.196 33.6095C419.545 55.8416 420.594 78.0737 420.594 100.306C420.594 143.895 420.07 187.484 419.895 231.073C419.895 255.931 418.846 275.712 421.817 296.894C422.167 299.695 423.564 307.747 425.836 310.023C429.506 313.524 468.996 313.699 478.782 311.598C489.091 309.498 485.946 302.846 485.422 294.268C484.548 272.736 483.849 251.379 483.849 230.022C483.849 208.665 483.325 210.241 483.325 200.438C483.325 190.635 483.5 189.059 492.936 188.534C517.224 186.959 520.544 201.313 521.942 221.62C523.515 244.902 527.359 270.11 525.612 293.393C525.262 297.769 524.563 303.546 525.437 307.572C526.311 311.598 533.999 312.124 539.765 312.124C551.648 312.124 564.054 311.773 575.062 311.248C586.595 310.723 585.372 304.771 585.896 294.443C586.595 282.014 586.42 268.184 586.595 255.755C587.119 235.974 586.945 209.541 583.1 187.309ZM519.321 103.632C520.195 113.96 517.574 120.787 512.506 128.14C509.011 133.216 503.42 135.667 497.479 136.893C488.567 138.643 486.645 137.243 485.247 129.015C483.674 120.262 483.674 112.56 482.975 103.632C481.752 86.8265 474.413 58.9926 501.148 60.3931C519.321 61.4434 518.273 90.3276 519.321 103.632Z" fill="#2C2C2E"/>
<path d="M189.415 176.631C190.813 146.346 188.367 116.061 189.066 85.7766C189.415 71.9472 188.542 58.1178 189.066 44.4634C189.415 34.6603 189.59 24.8572 187.843 7.87675C187.318 3.15024 172.64 1.22462 168.796 1.39968C155.167 2.0999 141.537 2.97518 127.907 3.85046C121.267 4.20057 119.345 5.60102 119.345 12.6033C119.345 28.8835 119.345 44.9886 119.695 61.2688C120.219 77.549 121.267 93.6542 121.792 109.934C121.792 115.361 121.267 120.788 120.918 126.39C120.918 127.615 119.87 128.665 118.646 128.665C117.423 128.665 116.025 129.015 114.977 129.015C103.269 129.716 91.3872 130.941 79.6797 130.766C68.6712 130.766 67.2733 130.416 66.7491 119.212C65.5259 97.6804 63.2543 76.1486 66.0501 54.6167C66.3996 51.9908 66.0501 49.1899 66.0501 46.5641V39.5619C66.0501 29.0585 67.0986 21.181 64.827 11.2028C63.0796 3.50035 61.8564 1.92485 54.5174 0.874512H49.45C38.9657 1.04957 28.3067 1.92485 17.6477 1.92485C6.98863 1.92485 3.49386 5.25091 1.92122 13.8287C1.22227 16.9797 1.39701 20.3057 1.39701 23.4567C1.39701 42.5378 1.74648 61.794 1.92122 80.8751C2.2707 120.788 -0.874591 160.701 0.348577 200.788C0.348577 206.915 1.22227 213.217 1.39701 219.344C1.74648 232.649 1.92122 245.778 1.92122 259.082C1.92122 272.386 2.62017 272.736 1.74648 279.389C0.698053 288.666 2.09596 296.369 2.2707 305.297C2.2707 312.299 10.6581 311.424 15.3761 311.424C30.5783 310.899 42.4605 310.899 57.6627 310.724C62.7301 310.724 66.7491 309.848 66.7491 304.421C66.7491 295.319 66.7491 286.041 66.3996 276.938C66.0501 264.159 65.1765 251.204 64.827 238.425V218.644C64.827 212.692 64.827 206.74 65.3512 200.788C65.3512 197.462 66.7491 193.436 70.7681 194.136C84.3977 196.412 97.8525 194.836 112.006 194.836C126.16 194.836 119.171 197.287 119.52 206.04C120.219 223.371 121.267 233.874 119.87 257.507C119.87 259.957 120.568 264.509 120.568 266.784C120.918 278.338 119.695 290.067 120.568 301.621C120.568 303.721 121.966 306.872 123.539 307.573C130.179 310.373 136.47 312.649 144.158 311.949C152.196 311.249 166.525 312.649 174.912 312.474C180.154 312.299 185.921 308.273 186.27 303.021C186.794 295.844 185.921 289.017 186.27 282.189C186.62 276.763 187.493 270.461 187.493 265.034C187.493 236.675 188.367 191.51 189.241 176.631C189.241 176.631 189.241 176.631 189.415 176.631Z" fill="#2C2C2E"/>
<path d="M400.499 291.817C394.558 275.537 393.684 258.206 389.665 241.401C385.297 222.67 379.705 204.464 375.337 185.733C367.299 151.072 357.164 116.936 348.078 82.6251C343.534 64.9444 338.991 47.2638 335.322 29.4081C330.953 8.2263 329.555 3.4998 307.014 2.44946C297.229 1.92429 275.561 -2.45211 268.048 4.90024C261.757 10.8521 261.058 27.8326 259.311 35.8851C245.332 95.9293 233.624 156.499 222.965 217.068C218.422 242.976 210.908 270.635 206.19 296.543C204.268 306.697 202.171 308.972 211.607 311.248C220.344 313.524 229.43 311.073 238.342 312.649C245.332 313.874 252.496 312.824 259.835 310.548C269.97 307.397 271.018 287.966 273.639 279.563C279.93 258.731 294.608 266.434 313.654 267.134C331.478 267.834 330.779 280.963 335.497 297.069C339.341 310.198 350.349 312.298 361.882 312.298C373.415 312.298 388.267 313.349 397.354 307.747C402.072 304.421 403.12 298.819 400.499 291.817ZM305.791 204.639C286.745 202.013 287.444 195.711 289.715 177.856C290.938 168.753 291.113 147.921 297.054 137.768C298.627 135.142 302.296 135.142 303.869 137.768C312.955 153.523 324.663 207.265 305.791 204.639Z" fill="#2C2C2E"/>
<path d="M800.475 54.4421C801.698 36.7614 800.125 33.2603 798.902 15.5796C797.504 -3.15134 786.845 0.174724 770.769 0.174724C732.502 0.174724 694.933 1.05 656.84 1.75023C644.434 1.92528 619.271 -1.92595 609.835 7.70213C602.671 15.0545 605.292 33.4354 605.292 43.0634C605.292 52.6915 603.72 62.4946 613.68 68.2715C624.863 74.7485 647.404 69.3218 660.335 70.1971C675.887 71.2474 678.682 72.998 678.508 89.9784C678.333 109.585 675.887 139.344 674.663 158.95C672.567 198.338 670.994 238.601 672.042 278.164C672.392 290.768 667.674 310.899 683.575 311.249C691.264 311.424 700.175 312.825 707.864 312.124C715.727 311.249 728.308 311.949 735.472 309.499C748.927 304.947 746.306 286.741 745.258 274.487C743.336 254.706 741.413 234.925 741.938 215.143C742.986 177.506 742.811 130.066 740.889 91.2038C740.54 83.8515 739.491 76.3241 741.239 73.5232C745.083 67.3962 753.82 68.4465 766.576 68.7966C781.778 68.7966 799.252 72.1227 800.475 54.4421Z" fill="#2C2C2E"/>
</g>
<defs>
<clipPath id="clip0_5946_10065">
<rect width="801" height="313" fill="white"/>
</clipPath>
</defs>
</svg>
