<svg width="21" height="10" viewBox="0 0 21 10" fill="none" xmlns="http://www.w3.org/2000/svg">
<path d="M20 5.65C20.359 5.65 20.65 5.35899 20.65 5C20.65 4.64101 20.359 4.35 20 4.35L20 5L20 5.65ZM0.54038 4.54038C0.286539 4.79422 0.286539 5.20578 0.540381 5.45962L4.67696 9.5962C4.9308 9.85004 5.34235 9.85004 5.59619 9.5962C5.85004 9.34235 5.85004 8.9308 5.59619 8.67696L1.91924 5L5.59619 1.32305C5.85003 1.06921 5.85003 0.657648 5.59619 0.403807C5.34235 0.149967 4.9308 0.149967 4.67695 0.403808L0.54038 4.54038ZM20 5L20 4.35L1 4.35L1 5L1 5.65L20 5.65L20 5Z" fill="#2C2C2E"/>
</svg>
