<svg width="21" height="11" viewBox="0 0 21 11" fill="none" xmlns="http://www.w3.org/2000/svg">
<path d="M1 4.85C0.641015 4.85 0.35 5.14101 0.35 5.5C0.35 5.85899 0.641015 6.15 1 6.15L1 5.5L1 4.85ZM20.4596 5.95962C20.7135 5.70578 20.7135 5.29422 20.4596 5.04038L16.323 0.903806C16.0692 0.649965 15.6576 0.649965 15.4038 0.903806C15.15 1.15765 15.15 1.5692 15.4038 1.82304L19.0808 5.5L15.4038 9.17696C15.15 9.4308 15.15 9.84235 15.4038 10.0962C15.6576 10.35 16.0692 10.35 16.323 10.0962L20.4596 5.95962ZM1 5.5L1 6.15L20 6.15V5.5V4.85L1 4.85L1 5.5Z" fill="#2C2C2E"/>
</svg>
